<?xml version="1.0" encoding="utf-8"?>
<!-- Generator: Adobe Illustrator 25.1.0, SVG Export Plug-In . SVG Version: 6.00 Build 0)  -->
<svg version="1.1" id="Laag_1" xmlns="http://www.w3.org/2000/svg" xmlns:xlink="http://www.w3.org/1999/xlink" x="0px" y="0px"
	 viewBox="0 0 500 500" style="enable-background:new 0 0 500 500;" xml:space="preserve">
<style type="text/css">
	.st0{fill:#FA8071;}
	.st1{fill:#FFFFFF;}
	.st2{fill:#047E73;}
</style>
<g>
	<path class="st0" d="M396.72,249.11c-0.42,0.78-0.81,1.54-1.18,2.26c0.02,0.28,0.04,0.57,0.07,0.85l1.85-2.22L396.72,249.11z"/>
</g>
<g>
	<path class="st0" d="M490.99,172.8c-4.59-7.71-11.54-11.79-20.09-11.79c-19.5,0-40.41,14.75-62.13,43.83
		c-9.52,12.74-17.02,25.36-21.51,33.43c-8.91-9.57-26.41-27.08-50.2-44.76c-25.6-19-62.53-40.92-104.76-49.1
		c-1.37-0.26-2.75-0.51-4.14-0.75h-0.01c-9.58-1.64-19.4-2.55-29.43-2.55c-16.42,0-32.33,2.45-47.42,6.51
		c-3.69,0.99-7.32,2.08-10.9,3.25c-8.72,2.84-17.11,6.19-25.14,9.86c0,0,0-0.01-0.01,0c-16.5,7.53-31.42,16.43-44.21,25.19
		c-3.74,2.55-7.29,5.1-10.65,7.59c-34.62,25.72-55.9,51.1-56.79,52.17L0,250l3.6,4.32c0.89,1.07,22.17,26.45,56.79,52.17
		c32.18,23.9,82.3,52.4,138.33,52.4c56.03,0,106.15-28.5,138.34-52.4c20.82-15.47,36.82-30.81,46.45-40.82
		c6.72,46.69,27.74,61.3,45.06,65.07c3.39,0.74,6.8,1.07,10.15,1.07c17.66,0,33.8-9.24,38.12-17.21
		c3.55-6.55,11.61-33.68,16.68-62.99C500.15,213.27,499.3,186.75,490.99,172.8z M328.74,295.84
		c-30.49,22.6-77.79,49.54-130.02,49.54c-52.23,0-99.53-26.94-130.01-49.54C43.52,277.17,25.32,258.27,17.8,250
		c11.18-12.27,46.04-47.99,92.91-72.07c15.5-7.96,32.31-14.65,50.02-18.79c6.55-1.53,13.23-2.72,20.01-3.49
		c3.31-0.37,6.65-0.65,10.01-0.82c0,0,0-0.01,0.01,0c2.64-0.14,5.29-0.21,7.96-0.21c9.39,0,18.62,0.87,27.62,2.44h0.01
		c1.15,0.19,2.29,0.4,3.43,0.62c39.66,7.68,74.65,28.46,98.96,46.48c25.19,18.68,43.4,37.57,50.92,45.84
		C372.14,258.27,353.93,277.16,328.74,295.84z M480.21,249.3c-2.42,14-5.57,27.5-8.45,38.12c-2.88,10.6-5.48,18.32-6.79,20.74
		c-1.95,3.6-17.39,12.89-33.53,9.38c-20.39-4.44-32.76-27-35.83-65.32c-0.03-0.28-0.05-0.57-0.07-0.85
		c0.37-0.72,0.76-1.48,1.18-2.26c12.59-23.98,45.21-74.59,74.18-74.59c3.73,0,6.35,1.6,8.49,5.19
		C485.72,190.35,486.02,215.71,480.21,249.3z"/>
	<path class="st1" d="M480.21,249.3c-2.42,14-5.57,27.5-8.45,38.12c-2.88,10.6-5.48,18.32-6.79,20.74
		c-1.95,3.6-17.39,12.89-33.53,9.38c-20.39-4.44-32.76-27-35.83-65.32l1.85-2.22l-0.74-0.89c12.59-23.98,45.21-74.59,74.18-74.59
		c3.73,0,6.35,1.6,8.49,5.19C485.72,190.35,486.02,215.71,480.21,249.3z"/>
	<path class="st1" d="M328.74,204.16c-24.31-18.02-59.3-38.8-98.96-46.48c-2.17,4.25-4.51,8.42-6.71,12.66
		c-1.74,3.34-3.38,6.73-5.1,10.17c-8.62-3.61-16.91-7.08-25.19-10.54c-1.69,2.77-3.05,5.3-4.69,7.63
		c-3.93,5.58-9.42,7.89-16.09,6.62c-7.23-1.38-14.36-3.3-21.59-4.7c-13.19-2.56-26.43-3.31-39.7-1.59
		C63.84,202.01,28.98,237.73,17.8,250c7.52,8.27,25.72,27.17,50.91,45.84c30.48,22.6,77.78,49.54,130.01,49.54
		c52.23,0,99.53-26.94,130.02-49.54c25.19-18.68,43.4-37.57,50.92-45.84C372.14,241.73,353.93,222.84,328.74,204.16z M89.47,274.06
		c-15.27,0-27.64-12.38-27.64-27.64c0-15.27,12.37-27.65,27.64-27.65c15.27,0,27.65,12.38,27.65,27.65
		C117.12,261.68,104.74,274.06,89.47,274.06z M115.31,291.36c0-1.62,1.38-3,3-3c2,0,4.22-0.47,5.93-1.29
		c2.12-1.03,3.4-2.04,4.93-3.82c1.23-1.43,2.15-3.48,2.64-5.51c0.06-0.26,0.12-0.53,0.17-0.8l0.1-0.61v-0.01
		c0.06-0.5,0.09-1.01,0.1-1.51c0.01-0.6-0.01-1.2-0.07-1.8c-0.01-0.06-0.03-0.23-0.04-0.34c0-0.03-0.01-0.05-0.01-0.07
		s-0.01-0.04-0.01-0.06c-0.05-0.28-0.11-0.56-0.17-0.84c-0.34-1.59,0.46-3.24,2.1-3.69c1.5-0.41,3.35,0.51,3.69,2.1
		c1.32,6.06-0.15,12.31-4.05,17.13c-3.67,4.53-9.53,7.12-15.31,7.12C116.68,294.36,115.31,292.99,115.31,291.36z M129.56,301.65
		c-0.76-1.31-0.39-3.41,1.08-4.1c9.36-4.42,15.51-14.09,15.47-24.29c-0.01-3.87,5.99-3.86,6,0c0.05,12.25-7.32,24.22-18.44,29.47
		C132.2,303.42,130.44,303.15,129.56,301.65z M155.91,296.11c-4.46,6.29-9.37,13.28-17.09,15.67c-3.7,1.14-5.27-4.65-1.59-5.79
		c5.97-1.84,10.01-7.99,13.5-12.91c3.86-5.45,8.2-12.23,6.69-19.24c-0.34-1.59,0.46-3.24,2.1-3.69c1.49-0.41,3.34,0.51,3.69,2.1
		C165.1,281.02,160.84,289.15,155.91,296.11z M216.91,301.43c-23.28,0-33.91-36.75-33.91-50.7c0-13.94,14.67-65.79,33.91-65.11
		c19.24,0.67,61.05,51.91,61.05,61.64C277.96,256.99,240.19,301.43,216.91,301.43z"/>
</g>
<g>
	<path class="st0" d="M117.12,246.42c0,15.26-12.38,27.64-27.65,27.64c-15.27,0-27.64-12.38-27.64-27.64
		c0-15.27,12.37-27.65,27.64-27.65C104.74,218.77,117.12,231.15,117.12,246.42z"/>
</g>
<path class="st0" d="M277.96,247.26c0,9.73-37.77,54.17-61.05,54.17c-23.28,0-33.91-36.75-33.91-50.7
	c0-13.94,14.67-65.79,33.91-65.11C236.15,186.29,277.96,237.53,277.96,247.26z"/>
<g>
	<path class="st0" d="M133.62,287.24c-3.67,4.53-9.53,7.12-15.31,7.12c-1.63,0-3-1.37-3-3c0-1.62,1.38-3,3-3
		c2,0,4.22-0.47,5.93-1.29c2.12-1.03,3.4-2.04,4.93-3.82c1.23-1.43,2.15-3.48,2.64-5.51c0.06-0.26,0.12-0.53,0.17-0.8l0.1-0.61
		v-0.01c0.06-0.5,0.09-1.01,0.1-1.51c0.01-0.6-0.01-1.2-0.07-1.8c-0.01-0.06-0.03-0.23-0.04-0.34c0-0.03-0.01-0.05-0.01-0.07
		c-0.01-0.04-0.01-0.06-0.01-0.06c-0.05-0.28-0.11-0.56-0.17-0.84c-0.34-1.59,0.46-3.24,2.1-3.69c1.5-0.41,3.35,0.51,3.69,2.1
		C138.99,276.17,137.52,282.42,133.62,287.24z"/>
</g>
<g>
	<path class="st0" d="M152.11,273.26c0.05,12.25-7.32,24.22-18.44,29.47c-1.47,0.69-3.23,0.42-4.11-1.08
		c-0.76-1.31-0.39-3.41,1.08-4.1c9.36-4.42,15.51-14.09,15.47-24.29C146.1,269.39,152.1,269.4,152.11,273.26z"/>
</g>
<g>
	<path class="st0" d="M155.91,296.11c-4.46,6.29-9.37,13.28-17.09,15.67c-3.7,1.14-5.27-4.65-1.59-5.79
		c5.97-1.84,10.01-7.99,13.5-12.91c3.86-5.45,8.2-12.23,6.69-19.24c-0.34-1.59,0.46-3.24,2.1-3.69c1.49-0.41,3.34,0.51,3.69,2.1
		C165.1,281.02,160.84,289.15,155.91,296.11z"/>
</g>
<g>
	<path class="st2" d="M232.3,144.41c-0.72-2.1-2.11-4.11-4.21-6.12c-3.12-2.99-6.78-5.47-10.34-7.97
		c-12.75-8.95-26.14-16.77-40.82-22.19c-22.37-8.27-45.09-10.95-68.21-3.42c-16.2,5.28-29.39,14.77-38.64,29.3
		c-4.26,6.69-6.13,13.63-1.69,21.04c2.59,4.32,6.19,7.72,10.46,10.27c2.77,1.66,2.62,4.42,3.17,6.82c0.21,0.92-1.24,2.38-2.17,3.39
		c-2.67,2.91-5.59,5.59-8.1,8.61c-0.34,0.41-0.59,1.09-0.71,1.78c-0.13,0.82-0.08,1.66,0.23,2.14c0.65,1.03,2.45,1.65,3.82,1.8
		c1.08,0.12,2.35-0.59,3.4-1.18c8.35-4.71,17.19-8.13,26.63-9.87c1.86-0.34,3.72-0.64,5.59-0.88c13.27-1.72,26.51-0.97,39.7,1.59
		c7.23,1.4,14.36,3.32,21.59,4.7c6.67,1.27,12.16-1.04,16.09-6.62c1.64-2.33,3-4.86,4.69-7.63c8.28,3.46,16.57,6.93,25.19,10.54
		c1.72-3.44,3.36-6.83,5.1-10.17c2.2-4.24,4.54-8.41,6.71-12.66c0.4-0.79,0.8-1.59,1.19-2.39
		C232.95,151.22,233.44,147.7,232.3,144.41z M216.98,175.97c-7.43-2.91-14.48-5.84-21.64-8.44c-11.29-4.1-22.83-6.93-34.61-8.39
		c-6.23-0.78-12.53-1.17-18.9-1.17c-6.21,0.01-12.46,0.74-18.65,1.47c-2.67,0.32-5.32,0.75-7.93,1.29
		c-10.32,2.11-20.19,5.84-29.91,10.42c-1.94-3.82-1.86-4.05,1.6-5.95c10.34-5.7,21.18-9.95,32.85-12.14
		c6.91-1.3,13.78-2.01,20.61-2.19c13.56-0.36,27,1.36,40.34,4.78c0.87,0.22,1.74,0.45,2.61,0.69c12.31,3.35,24.15,7.96,35.85,13.84
		C218.43,172.18,217.69,174.11,216.98,175.97z M221.13,166.75c-7.22-3-14.11-6.12-21.17-8.75c-3.05-1.14-6.12-2.2-9.21-3.17
		c-12.83-4.06-25.97-6.63-39.45-7.21c-1.55-0.07-3.1-0.11-4.66-0.12c-22.4-0.19-43.72,4.27-63.17,15.98
		c-0.53,0.31-1.54,0.55-1.91,0.28c-4.31-3.3-8.73-6.57-11.17-11.62c-2.26-4.66-1.55-9.29,0.85-13.71
		c5.86-10.79,14.53-18.82,25.15-24.74c19.3-10.75,39.88-12.18,61.13-7.69c19.25,4.07,36.55,12.61,52.8,23.45
		c4.52,3.01,8.99,6.12,13.28,9.44c2.1,1.63,3.61,3.17,4.56,4.77c1.99,3.33,1.57,6.87-0.95,11.75c-0.28,0.55-0.57,1.1-0.86,1.65
		C224.65,160.3,222.88,163.5,221.13,166.75z"/>
	<path class="st1" d="M227.21,155.41c-1.96,3.8-4.03,7.54-6.08,11.34c-7.22-3-14.11-6.12-21.17-8.75
		c-17.18-6.42-34.93-10.34-53.32-10.5c-22.4-0.19-43.72,4.27-63.17,15.98c-0.53,0.31-1.54,0.55-1.91,0.28
		c-4.31-3.3-8.73-6.57-11.17-11.62c-2.26-4.66-1.55-9.29,0.85-13.71c5.86-10.79,14.53-18.82,25.15-24.74
		c19.3-10.75,39.88-12.18,61.13-7.69c19.25,4.07,36.55,12.61,52.8,23.45c4.52,3.01,8.99,6.12,13.28,9.44
		C230.08,143.91,230.93,148.19,227.21,155.41z"/>
	<path class="st1" d="M85.34,171.15c-1.94-3.82-1.86-4.06,1.6-5.96c10.34-5.7,21.19-9.95,32.85-12.14
		c21.47-4.03,42.64-2.43,63.57,3.28c12.3,3.35,24.15,7.97,35.84,13.84c-0.77,2.01-1.51,3.94-2.22,5.8
		c-7.43-2.91-14.48-5.84-21.64-8.44c-17.27-6.28-35.13-9.57-53.51-9.56c-6.22,0-12.46,0.74-18.65,1.47
		C109.94,161.01,97.52,165.41,85.34,171.15z"/>
	<path class="st2" d="M104.69,144.29c-0.19-1.55-0.38-3.09-0.49-4c-1.55-1.06-2.73-1.88-3.91-2.69c0.97-0.95,1.93-1.91,2.9-2.86
		c0.38-0.14,0.76-0.28,1.14-0.43c-1.02-1.15-1.84-2.64-3.1-3.4c-4.57-2.78-6.07-8.55-3.15-12.95c2.78-4.18,8.29-4.88,12.45-1.58
		c3.95,3.13,4.16,8.87,0.63,12.94c-0.94,1.08-1.39,2.59-1.88,3.53c2.24,1.04,3.65,1.69,5.06,2.34c-1.12,1.35-2.23,2.7-3.87,4.68
		c0.11,0.91,0.35,2.85,0.76,6.24c3.33-3.35,6.03-5.95,8.59-8.68c1.1-1.17,1.72-2.83,2.92-3.84c0.89-0.74,2.36-0.77,3.57-1.12
		c0.16,1.27,0.86,2.81,0.39,3.77c-1.24,2.56-2.74,5.06-4.55,7.24c-10.31,12.45-23.55,7.92-30.28-2.24c-0.6-0.91-0.34-2.39-0.48-3.61
		c1.21,0.19,2.65,0.02,3.57,0.64c3.11,2.1,6.02,4.48,9.01,6.75C104.22,144.78,104.45,144.53,104.69,144.29z M99.94,123.55
		c2.58,1.54,4.2,3.26,5.52,3.06c1.23-0.19,2.95-2.37,3.04-3.76c0.16-2.5-1.93-3.82-4.31-3.14
		C102.93,120.06,102.01,121.6,99.94,123.55z"/>
</g>
</svg>
